<svg version="1.1" id="Layer_1" xmlns="http://www.w3.org/2000/svg" xmlns:xlink="http://www.w3.org/1999/xlink" x="0px" y="0px"
	 width="100%" viewBox="0 0 1920 1920" enable-background="new 0 0 1920 1920" xml:space="preserve">
<path fill="#000000" opacity="1.000000" stroke="none" 
	d="
M1000.000000,1921.000000 
	C666.666687,1921.000000 333.833344,1921.000000 1.000000,1921.000000 
	C1.000000,1281.000000 1.000000,641.000000 1.000000,1.000000 
	C641.000000,1.000000 1281.000000,1.000000 1921.000000,1.000000 
	C1921.000000,641.000000 1921.000000,1281.000000 1921.000000,1921.000000 
	C1614.166626,1921.000000 1307.333374,1921.000000 1000.000000,1921.000000 
M762.589417,708.703613 
	C765.268127,705.758545 767.909851,702.778809 770.631897,699.874268 
	C782.776245,686.916260 794.943481,673.979797 807.719910,660.786865 
	C817.289734,650.596741 826.859558,640.406555 836.770996,630.684814 
	C836.894653,630.833313 837.018311,630.981750 837.060974,631.912354 
	C835.027466,638.238647 832.993958,644.565002 830.453613,651.065430 
	C830.361084,651.372375 830.268616,651.679382 830.018738,652.634583 
	C829.973267,653.075928 829.927734,653.517334 829.217041,654.280457 
	C823.665161,669.971008 818.080078,685.649902 812.572144,701.355896 
	C808.298706,713.541504 804.121704,725.760986 799.230042,738.312378 
	C793.163635,755.483215 787.064270,772.642578 781.042297,789.828979 
	C776.944580,801.523438 772.955139,813.255920 768.249878,825.328796 
	C763.902100,837.688049 759.530945,850.039185 755.212341,862.408630 
	C749.444763,878.928101 743.718079,895.461731 737.295959,912.444519 
	C737.200073,915.949951 734.574402,914.972534 732.641602,914.976807 
	C695.429138,915.059570 658.216675,915.109131 620.077393,915.012451 
	C584.115417,915.009033 548.153381,914.986450 512.191528,915.051941 
	C510.127686,915.055725 508.065155,915.778015 505.157104,916.014709 
	C497.545898,917.680420 489.753265,918.775513 482.360077,921.126709 
	C465.219147,926.577759 449.653076,934.966125 436.267761,948.203918 
	C418.125946,964.599915 407.215393,985.188782 400.851776,1008.505310 
	C401.540527,1008.744446 401.852814,1008.947876 402.164978,1008.947632 
	C438.777557,1008.919434 475.390167,1008.876221 512.929688,1008.979370 
	C548.620667,1008.931091 584.311584,1008.882812 620.929382,1008.980469 
	C658.620239,1008.931580 696.311157,1008.882690 734.929077,1008.978943 
	C753.819824,1008.978943 772.710571,1008.978943 791.154480,1008.978943 
	C789.741455,1019.831177 787.795227,1030.309937 787.159729,1040.867676 
	C786.471558,1052.301025 786.952942,1063.808594 787.058899,1075.282471 
	C787.076477,1077.188354 787.781738,1079.088013 788.015503,1081.869751 
	C789.343323,1090.242676 790.255310,1098.706909 792.072998,1106.972168 
	C798.911438,1138.067993 813.903198,1164.882080 836.137329,1187.508789 
	C854.711487,1206.411133 876.345032,1221.178833 900.592712,1231.874634 
	C933.185364,1246.251343 967.307678,1253.207397 1003.937256,1251.975952 
	C1012.368347,1251.649658 1020.851562,1251.797241 1029.217529,1250.878296 
	C1039.904175,1249.704468 1050.667114,1248.376709 1061.092163,1245.854614 
	C1080.908081,1241.060181 1099.827148,1233.872925 1116.731323,1220.789429 
	C1119.438843,1218.691895 1122.296997,1216.760498 1124.828735,1214.468750 
	C1137.769043,1202.755127 1148.831787,1189.640991 1155.741821,1172.674683 
	C1162.288330,1156.022827 1164.059692,1138.715820 1162.979614,1120.122681 
	C1162.324463,1115.431641 1161.954468,1110.679688 1160.969360,1106.058960 
	C1152.297241,1065.378296 1128.224243,1037.355347 1090.334229,1020.965698 
	C1070.087769,1012.207886 1048.669067,1011.107361 1026.123535,1012.014771 
	C1007.036072,1013.325745 988.904480,1018.049377 971.299561,1027.212524 
	C955.781006,1035.191772 942.930542,1046.536377 931.303711,1059.326172 
	C928.422668,1062.495361 926.341492,1066.391602 923.248352,1070.218750 
	C915.009583,1081.980835 909.329651,1094.965454 905.020935,1108.588257 
	C904.061218,1111.622803 902.989685,1112.594727 899.456116,1111.272217 
	C893.253540,1108.950806 888.435486,1105.201538 884.929932,1099.806396 
	C874.615601,1083.932007 875.387085,1066.310669 877.704834,1048.696655 
	C878.798645,1040.383789 881.271484,1032.252319 883.776428,1023.701477 
	C891.442383,1003.219421 904.772522,986.878235 921.224854,972.905945 
	C927.326965,967.723694 933.805725,962.984924 940.833130,957.990540 
	C944.748352,955.688721 948.579468,953.227539 952.592407,951.110962 
	C979.549255,936.892639 1008.045593,928.612671 1038.760742,928.932007 
	C1040.155029,928.946533 1041.556274,928.313293 1043.897217,927.993652 
	C1053.699951,927.995117 1063.502808,928.010620 1073.305542,927.995483 
	C1104.204834,927.947754 1135.104248,927.888550 1166.930298,927.980774 
	C1205.288208,927.931763 1243.646240,927.882751 1282.930542,927.981445 
	C1296.563599,927.981445 1310.196533,927.981445 1324.342285,927.981445 
	C1321.112549,937.629333 1318.046631,946.787903 1314.324219,956.331055 
	C1311.312378,964.985474 1308.283813,973.634094 1305.292236,982.295593 
	C1300.503296,996.161011 1295.739136,1010.034973 1290.284790,1024.265015 
	C1285.456055,1038.126709 1280.619873,1051.985718 1275.800659,1065.850708 
	C1271.501099,1078.220703 1267.220337,1090.597168 1262.265991,1103.332886 
	C1256.027588,1121.202881 1249.766724,1139.065063 1243.559204,1156.945679 
	C1239.628662,1168.267578 1235.777466,1179.616821 1231.219849,1191.288452 
	C1225.076172,1208.811768 1218.912964,1226.328247 1212.795166,1243.860718 
	C1208.488281,1256.203491 1204.243164,1268.567871 1199.304565,1281.296753 
	C1194.218750,1295.760376 1189.091675,1310.209595 1184.059082,1324.691772 
	C1179.284058,1338.432739 1174.608276,1352.208008 1169.221802,1366.318237 
	C1164.487549,1379.852783 1159.655518,1393.354614 1155.085693,1406.944458 
	C1153.894043,1410.488159 1151.819824,1410.164551 1149.000488,1409.668823 
	C1141.331177,1408.320312 1133.615479,1407.238525 1125.927368,1405.993896 
	C1118.279663,1404.756104 1110.642944,1403.448730 1102.140381,1402.016235 
	C1090.227417,1400.256104 1078.305176,1398.555298 1066.403931,1396.718872 
	C1054.508911,1394.883423 1042.639404,1392.881714 1030.749878,1391.010376 
	C1021.267395,1389.517822 1011.767456,1388.136353 1002.282410,1386.659912 
	C992.851074,1385.192017 983.428711,1383.666992 973.174622,1382.014771 
	C971.268066,1381.675415 969.367615,1381.296265 967.453979,1381.003296 
	C958.119995,1379.574951 948.710022,1378.529053 939.463318,1376.670044 
	C926.142822,1373.992065 912.765747,1372.462646 899.394043,1375.133789 
	C888.349121,1377.340088 878.191711,1381.968140 869.202393,1390.031860 
	C859.602722,1397.541870 851.806580,1406.734497 845.171021,1416.838257 
	C833.141907,1435.154419 824.629761,1455.273193 816.059387,1475.334351 
	C813.795532,1480.633789 811.832458,1486.061646 809.510803,1491.994019 
	C812.040222,1491.994019 813.843994,1491.993896 815.647766,1491.994019 
	C867.276611,1491.996582 918.905457,1492.007202 970.534302,1491.994263 
	C979.357056,1491.992065 988.179810,1491.889526 997.929504,1491.978516 
	C1035.287109,1491.930054 1072.644653,1491.881592 1110.929199,1491.978760 
	C1137.074219,1491.494263 1163.288330,1493.526611 1189.344971,1489.956787 
	C1194.276245,1489.281494 1199.128662,1488.031494 1204.854370,1487.001221 
	C1212.475708,1484.995483 1220.215088,1483.351685 1227.695312,1480.912964 
	C1246.763672,1474.695801 1264.517944,1465.876343 1280.735596,1452.786743 
	C1281.913086,1451.931396 1283.224731,1451.211548 1284.246582,1450.199219 
	C1292.691772,1441.830566 1301.981201,1434.112305 1309.266235,1424.825317 
	C1318.636230,1412.880249 1326.385254,1399.663818 1335.137207,1386.332031 
	C1344.886230,1368.958862 1351.543213,1350.294434 1357.996582,1331.546875 
	C1361.723999,1320.718750 1365.410767,1309.876831 1369.787720,1298.687134 
	C1369.936035,1297.886719 1369.975952,1297.047119 1370.248657,1296.291626 
	C1376.679932,1278.474854 1383.212158,1260.693848 1389.560059,1242.847656 
	C1393.550415,1231.629395 1397.271240,1220.315552 1401.778687,1208.707031 
	C1406.708984,1194.764038 1411.686768,1180.837524 1416.554688,1166.872803 
	C1420.477417,1155.619629 1424.267456,1144.320312 1428.792603,1132.690674 
	C1428.938354,1131.889160 1428.976562,1131.049438 1429.245605,1130.291748 
	C1437.094116,1108.187866 1444.965576,1086.092163 1452.986938,1063.238525 
	C1458.001099,1049.442749 1463.121582,1035.684448 1467.996948,1021.839905 
	C1472.181030,1009.959167 1476.084717,997.979797 1480.779907,985.714722 
	C1487.686646,966.506226 1494.593384,947.297668 1501.592163,927.833374 
	C1523.122192,927.833374 1544.564209,927.833374 1566.932861,927.979248 
	C1604.251343,927.986877 1641.570068,928.027222 1678.888062,927.898804 
	C1680.617920,927.892883 1683.169067,926.842041 1683.933838,925.486023 
	C1688.464355,917.453064 1692.580078,909.186096 1697.116699,900.349731 
	C1701.750610,891.833679 1706.393188,883.322266 1711.016602,874.800415 
	C1719.302002,859.529175 1727.600586,844.264954 1735.844360,828.971191 
	C1740.043701,821.180603 1744.135986,813.332214 1748.552490,804.988770 
	C1745.888306,804.988770 1744.069336,804.988647 1742.250488,804.988831 
	C1705.137695,804.992126 1668.024902,804.978455 1630.912109,805.006042 
	C1612.609375,805.019592 1594.306519,805.109375 1575.077759,805.006470 
	C1545.987427,805.004761 1516.896973,804.981445 1487.806641,805.008118 
	C1463.873169,805.030090 1439.939819,805.111450 1415.080322,805.005798 
	C1383.660889,805.004028 1352.241455,804.981140 1320.822021,805.007507 
	C1298.549683,805.026184 1276.277344,805.111206 1253.078979,805.008118 
	C1212.054077,805.060791 1171.029175,805.113464 1129.077759,805.009766 
	C1107.765747,805.672913 1086.425537,805.872742 1065.152222,807.170166 
	C1052.049927,807.969299 1039.049805,810.443848 1025.184448,812.011475 
	C1023.945251,812.336121 1022.707092,812.664856 1021.466614,812.984619 
	C1005.026917,817.223206 988.477600,821.085754 972.187134,825.835754 
	C962.056213,828.789734 952.316833,833.086731 942.070251,836.904480 
	C946.374573,824.691040 950.622681,812.889221 954.690979,801.025635 
	C959.251648,787.726685 963.649597,774.371887 968.794495,760.689880 
	C975.463318,741.454773 982.132202,722.219666 988.984253,702.223083 
	C999.692688,671.161743 1010.401123,640.100464 1021.783020,608.691956 
	C1021.930481,607.892273 1021.976379,607.057251 1022.240112,606.297913 
	C1031.424561,579.857910 1040.629395,553.425049 1049.983765,526.222412 
	C1051.601807,522.041504 1053.333252,517.900452 1054.817383,513.672607 
	C1059.920410,499.135468 1064.974854,484.581024 1069.973999,470.007874 
	C1073.738403,459.033905 1077.389282,448.020996 1081.764648,436.675232 
	C1082.035522,435.754425 1082.267944,434.820221 1082.583008,433.914764 
	C1092.556763,405.251190 1102.541260,376.591248 1112.517456,347.928528 
	C1115.466431,339.455963 1118.396240,330.976715 1121.511841,321.990051 
	C1118.942871,321.990051 1117.130249,321.989899 1115.317505,321.990082 
	C1079.039673,321.993378 1042.761719,321.957794 1006.484131,322.044495 
	C1001.402344,322.056641 996.229736,322.173492 991.259033,323.099701 
	C978.532104,325.471191 966.307495,329.486633 954.228760,335.997314 
	C943.641357,341.345032 933.737244,347.541107 926.320557,357.133881 
	C918.480286,367.274506 910.379150,377.213135 902.497986,387.322601 
	C898.509399,392.438843 894.754700,397.737335 890.259644,403.194153 
	C873.466736,424.782593 856.673828,446.371063 839.249573,468.209656 
	C827.601501,483.206940 815.926147,498.183197 804.315735,513.209534 
	C797.475525,522.062256 790.738220,530.994507 783.318054,540.149292 
	C766.517700,561.753845 749.717346,583.358398 732.293335,605.227295 
	C719.489563,621.805298 706.685791,638.383301 693.255249,655.215881 
	C688.761353,661.054443 684.230042,666.864685 679.783142,672.738892 
	C674.466919,679.761353 669.222839,686.838501 663.317017,694.151733 
	C662.348999,695.280029 661.343628,696.378662 660.419189,697.541626 
	C654.804993,704.603760 649.209351,711.680542 643.255188,718.313049 
	C643.130127,718.173035 643.005127,718.033020 642.958496,717.110352 
	C647.895386,703.072815 652.832275,689.035278 657.986023,674.234619 
	C663.026367,660.004089 668.117126,645.791199 673.085205,631.535461 
	C675.456055,624.732300 677.593994,617.847900 680.151001,610.316528 
	C680.717468,609.350464 681.454407,608.445190 681.823914,607.408875 
	C685.315735,597.615784 688.767700,587.808289 692.185181,577.988953 
	C695.191467,569.350891 698.138977,560.692383 701.780457,551.702942 
	C701.867188,551.047424 701.838623,550.350403 702.057190,549.742310 
	C710.296143,526.819885 718.557861,503.905609 726.986694,480.233032 
	C733.209412,462.723328 739.791565,445.330841 745.550293,427.669830 
	C750.938660,411.144653 752.045044,393.894501 748.687378,376.959351 
	C741.907654,342.763885 712.412659,322.150421 679.932007,322.014160 
	C653.109558,321.901642 626.286255,321.974365 599.463318,322.003754 
	C574.976746,322.030579 550.490112,322.109528 525.077332,322.009155 
	C488.718933,322.061188 452.360565,322.113251 415.076263,322.009399 
	C396.941437,322.005737 378.802246,322.246643 360.673157,321.922058 
	C345.825928,321.656281 331.241730,322.735443 316.936127,326.980133 
	C294.573944,333.615326 275.317200,345.326447 258.338348,362.165375 
	C254.119720,367.386688 249.496170,372.335083 245.758362,377.880463 
	C234.561005,394.492798 227.906906,412.670990 228.003143,433.816345 
	C228.001892,438.181976 227.948013,442.548309 228.008957,446.913086 
	C228.215118,461.679138 232.158508,475.530670 239.010849,488.477753 
	C251.545822,512.161865 270.468628,529.520447 293.970734,541.884399 
	C307.705994,549.110107 322.408875,553.869324 337.993744,554.917725 
	C349.370361,555.682983 360.798615,555.845276 372.205566,555.897217 
	C375.808746,555.913635 379.417542,554.704773 383.876709,554.002686 
	C384.869812,553.989807 385.900726,554.148193 386.850494,553.938782 
	C406.241974,549.663330 424.263855,542.324036 440.692871,529.821228 
	C444.167236,526.811768 448.054626,524.160217 451.034027,520.721863 
	C458.283936,512.355164 465.112457,503.623352 472.753204,494.732178 
	C486.882568,470.250092 489.679321,443.770874 485.629395,415.834930 
	C500.721863,415.834930 514.862000,415.834930 529.928955,415.981750 
	C543.912781,415.981750 557.896545,415.981750 572.353333,415.981750 
	C569.027954,425.800629 565.952148,434.882446 562.200500,444.303986 
	C559.808350,451.146667 557.393127,457.981354 555.029053,464.833710 
	C550.654480,477.513184 546.309875,490.202942 541.274292,503.229706 
	C539.223267,508.989288 537.140991,514.737915 535.127258,520.510498 
	C529.724609,535.997803 524.351379,551.495300 518.329041,567.385864 
	C514.365295,578.630127 510.358032,589.859314 506.450043,601.122864 
	C502.543152,612.383301 498.735474,623.678101 494.225159,635.282043 
	C489.617920,648.239075 484.956421,661.177124 480.420837,674.159180 
	C476.851715,684.374878 473.437775,694.644836 469.264221,705.246521 
	C463.662292,722.805115 461.362549,740.635315 463.938019,759.060059 
	C466.629944,778.318054 475.891785,793.757507 491.090668,805.339172 
	C511.903442,821.198669 535.990112,828.297607 561.932739,828.894348 
	C574.176392,829.176025 586.471924,828.705688 598.693298,827.851379 
	C605.197693,827.396729 611.594116,825.396301 618.861450,824.004028 
	C645.445374,818.257874 668.386780,805.694214 688.693665,786.750000 
	C689.781677,785.345703 690.754456,783.831299 691.975464,782.554138 
	C704.284302,769.678040 716.633789,756.840820 729.588013,743.712891 
	C731.191833,741.841980 732.723572,739.903137 734.411682,738.111633 
	C743.578674,728.382507 752.784180,718.689819 762.589417,708.703613 
z"/>
<path fill="#6FFEE1" opacity="1.000000" stroke="none" 
	d="
M788.169250,1080.990479 
	C787.781738,1079.088013 787.076477,1077.188354 787.058899,1075.282471 
	C786.952942,1063.808594 786.471558,1052.301025 787.159729,1040.867676 
	C787.795227,1030.309937 789.741455,1019.831177 791.154480,1008.978943 
	C772.710571,1008.978943 753.819824,1008.978943 734.413330,1008.575073 
	C732.874084,1006.890198 732.041077,1005.374756 730.797546,1004.364624 
	C719.206116,994.948547 707.587402,985.564758 695.890259,976.280457 
	C685.010498,967.645020 674.015930,959.154236 663.091003,950.575562 
	C658.150146,946.695801 653.262268,942.748596 648.338257,938.847351 
	C640.466064,932.610474 632.528748,926.453674 624.752075,920.100037 
	C623.196960,918.829468 622.237976,916.829346 621.004150,915.165588 
	C658.216675,915.109131 695.429138,915.059570 732.641602,914.976807 
	C734.574402,914.972534 737.200073,915.949951 737.985352,912.264221 
	C748.170349,919.609741 757.608826,927.209229 767.187805,934.627197 
	C771.357727,937.856445 775.970276,940.518738 780.101135,943.792480 
	C784.442322,947.233093 788.289062,951.298157 792.634827,954.732300 
	C800.279236,960.773132 808.215515,966.443787 815.890137,972.447632 
	C826.690002,980.896118 837.429443,989.425293 848.065063,998.079285 
	C854.446350,1003.271545 860.345520,1009.079224 866.902222,1014.026001 
	C871.951721,1017.835693 877.688354,1020.734741 883.119446,1024.038696 
	C881.271484,1032.252319 878.798645,1040.383789 877.704834,1048.696655 
	C875.387085,1066.310669 874.615601,1083.932007 884.929932,1099.806396 
	C888.435486,1105.201538 893.253540,1108.950806 899.456116,1111.272217 
	C902.989685,1112.594727 904.061218,1111.622803 905.020935,1108.588257 
	C909.329651,1094.965454 915.009583,1081.980835 923.878906,1070.240234 
	C935.121704,1078.144409 945.872803,1085.849121 956.298828,1093.970825 
	C963.562195,1099.629028 970.234375,1106.042969 977.454041,1111.761475 
	C981.419678,1114.902710 985.972107,1117.302979 990.211548,1120.461914 
	C985.754211,1143.832031 992.793945,1162.433716 1012.331665,1175.296753 
	C1028.013916,1185.621338 1044.915039,1185.309326 1062.175781,1178.091064 
	C1069.261475,1183.661987 1076.041748,1189.078369 1082.825073,1194.490967 
	C1093.916260,1203.341187 1105.009644,1212.188965 1116.102051,1221.037720 
	C1099.827148,1233.872925 1080.908081,1241.060181 1061.092163,1245.854614 
	C1050.667114,1248.376709 1039.904175,1249.704468 1029.217529,1250.878296 
	C1020.851562,1251.797241 1012.368347,1251.649658 1003.462402,1251.544678 
	C1002.370605,1249.990601 1002.014343,1248.546021 1001.092651,1247.799438 
	C996.611023,1244.169556 991.959595,1240.750366 987.402283,1237.212891 
	C974.372925,1227.099121 961.310730,1217.026611 948.359741,1206.813477 
	C941.025940,1201.030151 933.925476,1194.951782 926.642029,1189.103394 
	C922.163574,1185.507202 917.464783,1182.184082 913.011597,1178.558105 
	C911.038208,1176.951416 909.649475,1174.595947 907.612061,1173.103638 
	C900.980042,1168.246216 894.016357,1163.833862 887.476685,1158.860474 
	C881.698364,1154.466064 876.417542,1149.423462 870.731262,1144.900757 
	C865.164978,1140.473511 859.238342,1136.497070 853.701416,1132.035278 
	C848.202271,1127.604126 842.996521,1122.809082 837.652405,1118.185059 
	C834.208435,1115.205078 830.876038,1112.076904 827.267395,1109.310425 
	C818.760498,1102.788696 810.165955,1096.378052 801.510681,1090.054199 
	C797.172119,1086.884277 792.623047,1084.002563 788.169250,1080.990479 
z"/>
<path fill="#A0FFEB" opacity="1.000000" stroke="none" 
	d="
M799.901917,737.965393 
	C804.121704,725.760986 808.298706,713.541504 812.572144,701.355896 
	C818.080078,685.649902 823.665161,669.971008 829.904053,654.170166 
	C831.883362,654.797180 833.311523,655.368469 834.446472,656.297852 
	C844.679260,664.676880 854.763977,673.239685 865.090698,681.500244 
	C872.201538,687.188354 879.740051,692.340210 886.884583,697.988342 
	C896.876038,705.887085 906.985840,713.680847 916.474121,722.158569 
	C925.648987,730.356323 937.043030,735.606995 945.426880,744.817444 
	C948.058594,747.708618 951.504333,749.906921 954.744934,752.184021 
	C959.118042,755.257019 963.652954,758.099854 968.118408,761.041443 
	C963.649597,774.371887 959.251648,787.726685 954.690979,801.025635 
	C950.622681,812.889221 946.374573,824.691040 942.070251,836.904480 
	C952.316833,833.086731 962.056213,828.789734 972.187134,825.835754 
	C988.477600,821.085754 1005.026917,817.223206 1021.466614,812.984619 
	C1022.707092,812.664856 1023.945251,812.336121 1025.644409,812.431091 
	C1027.078125,814.362854 1027.741333,816.264709 1029.073730,817.326904 
	C1042.927246,828.370483 1056.866333,839.307495 1070.829468,850.212708 
	C1077.579468,855.484436 1084.443604,860.609680 1091.220581,865.847107 
	C1092.127686,866.548035 1092.768921,867.582886 1093.630737,868.354370 
	C1097.055054,871.420105 1100.344482,874.672058 1104.001343,877.435059 
	C1112.438232,883.809448 1121.218262,889.735718 1129.561157,896.226746 
	C1137.357544,902.292603 1144.842041,908.768555 1152.324707,915.225159 
	C1157.017090,919.274170 1161.452759,923.620728 1166.003540,927.833801 
	C1135.104248,927.888550 1104.204834,927.947754 1073.305542,927.995483 
	C1063.502808,928.010620 1053.699951,927.995117 1043.047852,927.979736 
	C1039.658325,926.091919 1037.117188,924.219177 1034.578125,922.343628 
	C1027.262573,916.939636 1019.799866,911.721741 1012.669373,906.083679 
	C1003.233826,898.622986 994.135498,890.737061 984.745972,883.216553 
	C977.654297,877.536560 970.265869,872.228516 963.129639,866.602539 
	C951.701416,857.592957 940.375610,848.453369 929.001221,839.375427 
	C917.215454,829.969177 905.412476,820.584412 893.640808,811.160461 
	C890.360718,808.534485 887.231140,805.717529 883.906616,803.151367 
	C881.842468,801.558105 879.376526,800.470642 877.376343,798.811951 
	C869.497681,792.278076 861.886169,785.414795 853.889343,779.032288 
	C841.102295,768.826721 828.129211,758.852173 815.147644,748.893616 
	C810.189331,745.089783 804.990906,741.598877 799.901917,737.965393 
z"/>
<path fill="#BCFFF1" opacity="1.000000" stroke="none" 
	d="
M1130.004272,805.166138 
	C1171.029175,805.113464 1212.054077,805.060791 1253.592285,805.419189 
	C1259.017334,810.195068 1263.804932,814.711365 1268.884766,818.870911 
	C1272.194092,821.580811 1276.128784,823.527649 1279.434204,826.241516 
	C1289.267822,834.315247 1298.834473,842.714600 1308.685791,850.766235 
	C1317.332275,857.833252 1326.203857,864.626038 1335.011108,871.494812 
	C1340.605591,875.857971 1346.247559,880.160706 1351.899048,884.450012 
	C1357.017334,888.334656 1362.314331,891.996460 1367.291992,896.051819 
	C1379.390747,905.908813 1391.222412,916.096497 1403.406372,925.845154 
	C1412.787598,933.351318 1422.661865,940.238647 1432.101562,947.674622 
	C1448.194214,960.351379 1464.117676,973.242798 1480.112305,986.044067 
	C1476.084717,997.979797 1472.181030,1009.959167 1467.996948,1021.839905 
	C1463.121582,1035.684448 1458.001099,1049.442749 1452.571533,1063.563477 
	C1442.453613,1056.778687 1432.531494,1049.945801 1423.109009,1042.482422 
	C1413.396362,1034.789307 1404.353027,1026.253418 1394.678223,1018.509583 
	C1385.414062,1011.094543 1375.648926,1004.308960 1366.231445,997.080688 
	C1360.500854,992.682251 1355.071045,987.894165 1349.395264,983.421814 
	C1344.871094,979.856995 1340.073730,976.635986 1335.585938,973.028320 
	C1328.633301,967.439209 1321.840942,961.650513 1314.980591,955.946472 
	C1318.046631,946.787903 1321.112549,937.629333 1324.342285,927.981445 
	C1310.196533,927.981445 1296.563599,927.981445 1282.409424,927.570801 
	C1280.298706,925.788696 1278.739258,924.380249 1277.114380,923.051880 
	C1268.166260,915.737122 1259.299438,908.318420 1250.218384,901.172119 
	C1239.473755,892.716614 1228.429932,884.640381 1217.715454,876.147583 
	C1204.355957,865.558228 1191.302612,854.582214 1177.929688,844.010132 
	C1162.751587,832.011047 1147.351685,820.292603 1132.105591,808.378967 
	C1131.151123,807.633118 1130.693237,806.251831 1130.004272,805.166138 
z"/>
<path fill="#BCFFF1" opacity="1.000000" stroke="none" 
	d="
M1021.109497,609.039124 
	C1010.401123,640.100464 999.692688,671.161743 988.537231,702.596619 
	C979.750000,696.816406 971.309937,690.792480 963.100342,684.469177 
	C956.121277,679.093628 949.482117,673.278748 942.556702,667.830872 
	C935.292847,662.116821 927.736755,656.770203 920.543213,650.971802 
	C910.137451,642.584229 900.096069,633.741089 889.618408,625.447205 
	C877.493347,615.849304 864.983337,606.739258 852.792969,597.221924 
	C843.787964,590.191528 835.069092,582.795959 826.146545,575.658325 
	C816.465393,567.913757 806.568115,560.433960 797.019958,552.530823 
	C792.366028,548.678711 788.291443,544.126404 783.954651,539.891052 
	C790.738220,530.994507 797.475525,522.062256 804.315735,513.209534 
	C815.926147,498.183197 827.601501,483.206940 839.917908,468.134186 
	C845.530640,472.119080 850.389282,476.289612 855.437378,480.216675 
	C865.742615,488.233582 876.242615,496.001740 886.489075,504.091919 
	C897.072998,512.448669 907.388489,521.144714 917.938416,529.545410 
	C927.212708,536.930298 936.691040,544.058533 946.000366,551.400024 
	C953.879517,557.613708 961.692078,563.914185 969.451538,570.276978 
	C981.971130,580.543091 994.271973,591.083618 1006.988831,601.097229 
	C1011.180969,604.398193 1016.374084,606.428040 1021.109497,609.039124 
z"/>
<path fill="#CEFFF5" opacity="1.000000" stroke="none" 
	d="
M1480.446045,985.879395 
	C1464.117676,973.242798 1448.194214,960.351379 1432.101562,947.674622 
	C1422.661865,940.238647 1412.787598,933.351318 1403.406372,925.845154 
	C1391.222412,916.096497 1379.390747,905.908813 1367.291992,896.051819 
	C1362.314331,891.996460 1357.017334,888.334656 1351.899048,884.450012 
	C1346.247559,880.160706 1340.605591,875.857971 1335.011108,871.494812 
	C1326.203857,864.626038 1317.332275,857.833252 1308.685791,850.766235 
	C1298.834473,842.714600 1289.267822,834.315247 1279.434204,826.241516 
	C1276.128784,823.527649 1272.194092,821.580811 1268.884766,818.870911 
	C1263.804932,814.711365 1259.017334,810.195068 1254.055420,805.498413 
	C1276.277344,805.111206 1298.549683,805.026184 1320.822021,805.007507 
	C1352.241455,804.981140 1383.660889,805.004028 1415.596191,805.417603 
	C1422.204834,810.849426 1428.315918,815.847595 1434.386230,820.895020 
	C1441.613647,826.904419 1448.680542,833.114502 1456.049927,838.943115 
	C1462.911133,844.369629 1470.216919,849.234009 1477.080688,854.657471 
	C1490.169922,865.000183 1503.052612,875.603943 1516.083618,886.020996 
	C1522.663818,891.281311 1529.385254,896.364502 1536.034424,901.538757 
	C1541.378662,905.697510 1546.905273,909.649719 1551.990845,914.104797 
	C1556.902466,918.407349 1561.353149,923.235901 1566.006348,927.833374 
	C1544.564209,927.833374 1523.122192,927.833374 1501.592163,927.833374 
	C1494.593384,947.297668 1487.686646,966.506226 1480.446045,985.879395 
z"/>
<path fill="#91FEE8" opacity="1.000000" stroke="none" 
	d="
M799.565979,738.138916 
	C804.990906,741.598877 810.189331,745.089783 815.147644,748.893616 
	C828.129211,758.852173 841.102295,768.826721 853.889343,779.032288 
	C861.886169,785.414795 869.497681,792.278076 877.376343,798.811951 
	C879.376526,800.470642 881.842468,801.558105 883.906616,803.151367 
	C887.231140,805.717529 890.360718,808.534485 893.640808,811.160461 
	C905.412476,820.584412 917.215454,829.969177 929.001221,839.375427 
	C940.375610,848.453369 951.701416,857.592957 963.129639,866.602539 
	C970.265869,872.228516 977.654297,877.536560 984.745972,883.216553 
	C994.135498,890.737061 1003.233826,898.622986 1012.669373,906.083679 
	C1019.799866,911.721741 1027.262573,916.939636 1034.578125,922.343628 
	C1037.117188,924.219177 1039.658325,926.091919 1042.576416,927.973816 
	C1041.556274,928.313293 1040.155029,928.946533 1038.760742,928.932007 
	C1008.045593,928.612671 979.549255,936.892639 952.592407,951.110962 
	C948.579468,953.227539 944.748352,955.688721 940.097290,957.999023 
	C937.917419,957.304565 936.273010,956.846863 935.062500,955.857971 
	C928.158630,950.218079 921.483765,944.292786 914.493042,938.765686 
	C904.148804,930.587158 893.434509,922.871521 883.189575,914.573792 
	C870.347839,904.173096 857.992981,893.169739 845.112183,882.819519 
	C831.630188,871.986145 817.771851,861.621216 804.081848,851.046448 
	C795.853271,844.690491 787.682068,838.258667 779.383240,831.995911 
	C776.034546,829.468933 772.414001,827.302124 768.917236,824.971375 
	C772.955139,813.255920 776.944580,801.523438 781.042297,789.828979 
	C787.064270,772.642578 793.163635,755.483215 799.565979,738.138916 
z"/>
<path fill="#AFFFEE" opacity="1.000000" stroke="none" 
	d="
M416.002167,322.165283 
	C452.360565,322.113251 488.718933,322.061188 525.592163,322.421997 
	C531.410950,327.226562 536.629700,331.726685 542.041992,335.980591 
	C547.890015,340.577026 554.031738,344.802704 559.831665,349.456390 
	C564.143738,352.916260 567.932861,357.032013 572.273682,360.450867 
	C583.307800,369.141266 594.606445,377.496216 605.623840,386.207275 
	C610.634521,390.168976 615.008789,394.941528 620.056763,398.848877 
	C634.043152,409.675018 648.296936,420.155273 662.311951,430.945068 
	C668.880615,436.002228 675.082581,441.532623 681.557922,446.714661 
	C692.151367,455.192322 702.764832,463.648193 713.509888,471.931580 
	C717.752136,475.201904 722.369873,477.985199 726.816589,480.990265 
	C718.557861,503.905609 710.296143,526.819885 702.057190,549.742310 
	C701.838623,550.350403 701.867188,551.047424 701.074707,551.856323 
	C699.323914,551.573853 698.118286,551.343445 697.258728,550.670776 
	C687.862122,543.318115 678.523743,535.891052 669.161316,528.494690 
	C659.990845,521.250061 650.711975,514.138489 641.667542,506.740021 
	C634.818176,501.137115 628.405212,494.999542 621.539001,489.418701 
	C613.472534,482.862396 605.101379,476.682098 596.907715,470.280731 
	C588.687683,463.858765 580.545898,457.336578 572.323120,450.918243 
	C569.242065,448.513275 566.029175,446.277252 562.876404,443.964233 
	C565.952148,434.882446 569.027954,425.800629 572.353333,415.981750 
	C557.896545,415.981750 543.912781,415.981750 529.412170,415.575623 
	C526.129089,412.385071 523.609314,409.286560 520.545227,406.881622 
	C514.172668,401.880035 507.311066,397.494629 501.008942,392.411530 
	C485.590912,379.975739 470.527557,367.097656 455.030121,354.763641 
	C443.662109,345.716156 431.761169,337.340576 420.278564,328.432434 
	C418.376953,326.957153 417.404205,324.284546 416.002167,322.165283 
z"/>
<path fill="#A0FFEB" opacity="1.000000" stroke="none" 
	d="
M415.539215,322.087341 
	C417.404205,324.284546 418.376953,326.957153 420.278564,328.432434 
	C431.761169,337.340576 443.662109,345.716156 455.030121,354.763641 
	C470.527557,367.097656 485.590912,379.975739 501.008942,392.411530 
	C507.311066,397.494629 514.172668,401.880035 520.545227,406.881622 
	C523.609314,409.286560 526.129089,412.385071 528.948730,415.502197 
	C514.862000,415.834930 500.721863,415.834930 485.629395,415.834930 
	C489.679321,443.770874 486.882568,470.250092 472.055389,494.867889 
	C470.434296,494.686249 469.349121,494.581146 468.612396,494.019257 
	C459.768250,487.273773 450.957825,480.483551 442.184387,473.646271 
	C440.362457,472.226440 438.804443,470.469604 436.993225,469.034149 
	C430.156769,463.616150 423.372437,458.121948 416.347839,452.956451 
	C413.152924,450.607025 409.442596,448.958557 405.948364,446.527710 
	C405.945984,444.564514 405.969879,443.065826 405.975281,441.567047 
	C406.090393,409.665070 377.217896,385.874908 345.866028,391.778198 
	C333.008118,394.199219 322.809570,400.787903 314.090332,409.817200 
	C312.566498,407.333466 311.454285,404.766785 309.530121,403.192871 
	C296.238434,392.321106 282.754120,381.685333 269.386597,370.905640 
	C265.815216,368.025635 262.434601,364.909027 258.966400,361.901062 
	C275.317200,345.326447 294.573944,333.615326 316.936127,326.980133 
	C331.241730,322.735443 345.825928,321.656281 360.673157,321.922058 
	C378.802246,322.246643 396.941437,322.005737 415.539215,322.087341 
z"/>
<path fill="#E3FFF9" opacity="1.000000" stroke="none" 
	d="
M1566.469604,927.906311 
	C1561.353149,923.235901 1556.902466,918.407349 1551.990845,914.104797 
	C1546.905273,909.649719 1541.378662,905.697510 1536.034424,901.538757 
	C1529.385254,896.364502 1522.663818,891.281311 1516.083618,886.020996 
	C1503.052612,875.603943 1490.169922,865.000183 1477.080688,854.657471 
	C1470.216919,849.234009 1462.911133,844.369629 1456.049927,838.943115 
	C1448.680542,833.114502 1441.613647,826.904419 1434.386230,820.895020 
	C1428.315918,815.847595 1422.204834,810.849426 1416.059082,805.497986 
	C1439.939819,805.111450 1463.873169,805.030090 1487.806641,805.008118 
	C1516.896973,804.981445 1545.987427,805.004761 1575.590576,805.426331 
	C1577.089966,807.122314 1577.871216,808.655945 1579.096558,809.632996 
	C1587.705688,816.498169 1596.415161,823.237244 1605.075439,830.038452 
	C1616.758545,839.213562 1628.440430,848.390503 1640.095703,857.600891 
	C1648.134033,863.953064 1656.136475,870.350647 1664.136108,876.751526 
	C1671.244995,882.439636 1678.226074,888.293762 1685.465820,893.809021 
	C1689.019043,896.515808 1693.030884,898.620605 1696.835205,900.997803 
	C1692.580078,909.186096 1688.464355,917.453064 1683.933838,925.486023 
	C1683.169067,926.842041 1680.617920,927.892883 1678.888062,927.898804 
	C1641.570068,928.027222 1604.251343,927.986877 1566.469604,927.906311 
z"/>
<path fill="#BCFFF1" opacity="1.000000" stroke="none" 
	d="
M726.901611,480.611633 
	C722.369873,477.985199 717.752136,475.201904 713.509888,471.931580 
	C702.764832,463.648193 692.151367,455.192322 681.557922,446.714661 
	C675.082581,441.532623 668.880615,436.002228 662.311951,430.945068 
	C648.296936,420.155273 634.043152,409.675018 620.056763,398.848877 
	C615.008789,394.941528 610.634521,390.168976 605.623840,386.207275 
	C594.606445,377.496216 583.307800,369.141266 572.273682,360.450867 
	C567.932861,357.032013 564.143738,352.916260 559.831665,349.456390 
	C554.031738,344.802704 547.890015,340.577026 542.041992,335.980591 
	C536.629700,331.726685 531.410950,327.226562 526.055298,322.500183 
	C550.490112,322.109528 574.976746,322.030579 599.463318,322.003754 
	C626.286255,321.974365 653.109558,321.901642 679.932007,322.014160 
	C712.412659,322.150421 741.907654,342.763885 748.687378,376.959351 
	C752.045044,393.894501 750.938660,411.144653 745.550293,427.669830 
	C739.791565,445.330841 733.209412,462.723328 726.901611,480.611633 
z"/>
<path fill="#AFFFEE" opacity="1.000000" stroke="none" 
	d="
M783.636353,540.020142 
	C788.291443,544.126404 792.366028,548.678711 797.019958,552.530823 
	C806.568115,560.433960 816.465393,567.913757 826.146545,575.658325 
	C835.069092,582.795959 843.787964,590.191528 852.792969,597.221924 
	C864.983337,606.739258 877.493347,615.849304 889.618408,625.447205 
	C900.096069,633.741089 910.137451,642.584229 920.543213,650.971802 
	C927.736755,656.770203 935.292847,662.116821 942.556702,667.830872 
	C949.482117,673.278748 956.121277,679.093628 963.100342,684.469177 
	C971.309937,690.792480 979.750000,696.816406 988.445618,702.977356 
	C982.132202,722.219666 975.463318,741.454773 968.456421,760.865662 
	C963.652954,758.099854 959.118042,755.257019 954.744934,752.184021 
	C951.504333,749.906921 948.058594,747.708618 945.426880,744.817444 
	C937.043030,735.606995 925.648987,730.356323 916.474121,722.158569 
	C906.985840,713.680847 896.876038,705.887085 886.884583,697.988342 
	C879.740051,692.340210 872.201538,687.188354 865.090698,681.500244 
	C854.763977,673.239685 844.679260,664.676880 834.446472,656.297852 
	C833.311523,655.368469 831.883362,654.797180 830.236694,654.009277 
	C829.927734,653.517334 829.973267,653.075928 830.279907,652.168579 
	C830.764404,651.475342 830.904175,651.204895 830.960449,650.891296 
	C832.993958,644.565002 835.027466,638.238647 837.375854,631.405945 
	C837.784973,630.360840 837.879150,629.822144 837.973389,629.283386 
	C837.659668,629.029053 837.345947,628.774719 837.032288,628.520386 
	C836.831299,629.085693 836.630310,629.651001 836.429382,630.216370 
	C826.859558,640.406555 817.289734,650.596741 806.993408,660.901123 
	C804.626892,660.851074 802.570984,661.261597 801.416382,660.426331 
	C795.287354,655.991760 789.296387,651.352600 783.432068,646.570435 
	C779.035034,642.984802 775.036316,638.908081 770.613403,635.357544 
	C766.031616,631.679565 760.990356,628.570740 756.438904,624.858826 
	C748.481873,618.369629 740.745728,611.609558 732.917053,604.962952 
	C749.717346,583.358398 766.517700,561.753845 783.636353,540.020142 
z"/>
<path fill="#CEFFF5" opacity="1.000000" stroke="none" 
	d="
M1021.446289,608.865540 
	C1016.374084,606.428040 1011.180969,604.398193 1006.988831,601.097229 
	C994.271973,591.083618 981.971130,580.543091 969.451538,570.276978 
	C961.692078,563.914185 953.879517,557.613708 946.000366,551.400024 
	C936.691040,544.058533 927.212708,536.930298 917.938416,529.545410 
	C907.388489,521.144714 897.072998,512.448669 886.489075,504.091919 
	C876.242615,496.001740 865.742615,488.233582 855.437378,480.216675 
	C850.389282,476.289612 845.530640,472.119080 840.233582,468.009125 
	C856.673828,446.371063 873.466736,424.782593 890.883789,403.227112 
	C894.222534,405.441559 896.943298,407.615601 899.651001,409.805756 
	C913.042725,420.637665 926.428406,431.477081 939.821838,442.306885 
	C944.832764,446.358612 949.779541,450.495514 954.899170,454.405609 
	C960.887573,458.979126 967.216919,463.119812 973.069214,467.855011 
	C983.344543,476.168915 993.227112,484.970367 1003.545715,493.228210 
	C1011.419739,499.529663 1019.742554,505.267944 1027.809937,511.330994 
	C1032.835571,515.108093 1037.693359,519.110291 1042.755493,522.836182 
	C1044.946533,524.448914 1047.462646,525.619629 1049.831299,526.991089 
	C1040.629395,553.425049 1031.424561,579.857910 1022.240112,606.297913 
	C1021.976379,607.057251 1021.930481,607.892273 1021.446289,608.865540 
z"/>
<path fill="#7FFEE4" opacity="1.000000" stroke="none" 
	d="
M768.583557,825.150085 
	C772.414001,827.302124 776.034546,829.468933 779.383240,831.995911 
	C787.682068,838.258667 795.853271,844.690491 804.081848,851.046448 
	C817.771851,861.621216 831.630188,871.986145 845.112183,882.819519 
	C857.992981,893.169739 870.347839,904.173096 883.189575,914.573792 
	C893.434509,922.871521 904.148804,930.587158 914.493042,938.765686 
	C921.483765,944.292786 928.158630,950.218079 935.062500,955.857971 
	C936.273010,956.846863 937.917419,957.304565 939.737061,958.025757 
	C933.805725,962.984924 927.326965,967.723694 921.224854,972.905945 
	C904.772522,986.878235 891.442383,1003.219421 883.447937,1023.870117 
	C877.688354,1020.734741 871.951721,1017.835693 866.902222,1014.026001 
	C860.345520,1009.079224 854.446350,1003.271545 848.065063,998.079285 
	C837.429443,989.425293 826.690002,980.896118 815.890137,972.447632 
	C808.215515,966.443787 800.279236,960.773132 792.634827,954.732300 
	C788.289062,951.298157 784.442322,947.233093 780.101135,943.792480 
	C775.970276,940.518738 771.357727,937.856445 767.187805,934.627197 
	C757.608826,927.209229 748.170349,919.609741 738.324341,912.036621 
	C743.718079,895.461731 749.444763,878.928101 755.212341,862.408630 
	C759.530945,850.039185 763.902100,837.688049 768.583557,825.150085 
z"/>
<path fill="#E3FFF9" opacity="1.000000" stroke="none" 
	d="
M1049.907471,526.606750 
	C1047.462646,525.619629 1044.946533,524.448914 1042.755493,522.836182 
	C1037.693359,519.110291 1032.835571,515.108093 1027.809937,511.330994 
	C1019.742554,505.267944 1011.419739,499.529663 1003.545715,493.228210 
	C993.227112,484.970367 983.344543,476.168915 973.069214,467.855011 
	C967.216919,463.119812 960.887573,458.979126 954.899170,454.405609 
	C949.779541,450.495514 944.832764,446.358612 939.821838,442.306885 
	C926.428406,431.477081 913.042725,420.637665 899.651001,409.805756 
	C896.943298,407.615601 894.222534,405.441559 891.201050,403.106720 
	C894.754700,397.737335 898.509399,392.438843 902.497986,387.322601 
	C910.379150,377.213135 918.480286,367.274506 926.320557,357.133881 
	C933.737244,347.541107 943.641357,341.345032 954.646362,336.297363 
	C957.637329,338.831390 960.188049,341.092163 962.788574,343.294128 
	C969.590881,349.053619 976.258545,354.987000 983.269897,360.480896 
	C991.975342,367.302185 1001.087952,373.603058 1009.811279,380.402435 
	C1018.808472,387.415253 1027.563599,394.739319 1036.398804,401.958893 
	C1047.644897,411.148529 1058.807495,420.441864 1070.131348,429.534454 
	C1073.571411,432.296753 1077.425903,434.542908 1081.090820,437.025452 
	C1077.389282,448.020996 1073.738403,459.033905 1069.973999,470.007874 
	C1064.974854,484.581024 1059.920410,499.135468 1054.817383,513.672607 
	C1053.333252,517.900452 1051.601807,522.041504 1049.907471,526.606750 
z"/>
<path fill="#87FEE6" opacity="1.000000" stroke="none" 
	d="
M494.884308,634.957825 
	C498.735474,623.678101 502.543152,612.383301 506.450043,601.122864 
	C510.358032,589.859314 514.365295,578.630127 519.005127,567.234436 
	C521.969421,568.389282 524.460632,569.436523 526.512085,571.044800 
	C537.918457,579.987610 549.218933,589.065552 560.554077,598.099182 
	C575.426514,609.951904 590.312317,621.787964 605.163513,633.667358 
	C613.828857,640.598755 622.434021,647.605347 631.073608,654.568909 
	C636.419800,658.877991 641.722717,663.243835 647.154724,667.442261 
	C650.588257,670.096069 654.224060,672.488220 657.769165,674.997742 
	C652.832275,689.035278 647.895386,703.072815 642.639465,717.619080 
	C642.211487,718.859863 642.102539,719.591858 641.865845,721.182617 
	C642.783386,719.902222 643.195435,719.327332 643.607422,718.752441 
	C649.209351,711.680542 654.804993,704.603760 660.419189,697.541626 
	C661.343628,696.378662 662.348999,695.280029 663.788452,694.329102 
	C679.820190,706.994263 695.278870,719.612183 710.994995,731.900879 
	C716.669495,736.337830 722.961609,739.985046 728.971924,743.992676 
	C716.633789,756.840820 704.284302,769.678040 691.975464,782.554138 
	C690.754456,783.831299 689.781677,785.345703 688.009888,786.873779 
	C686.001038,786.381470 684.497925,785.991821 683.379211,785.113037 
	C675.474548,778.902832 667.673279,772.561279 659.792175,766.320923 
	C647.253235,756.392517 634.638489,746.559570 622.128418,736.595093 
	C608.602661,725.821472 595.169495,714.931641 581.677490,704.115540 
	C575.111328,698.851685 568.474487,693.675720 561.921265,688.395935 
	C553.332458,681.476196 544.885742,674.376770 536.203125,667.578003 
	C530.285767,662.944397 523.910034,658.893433 518.025269,654.221741 
	C510.166504,647.983215 502.584900,641.395569 494.884308,634.957825 
z"/>
<path fill="#7FFEE4" opacity="1.000000" stroke="none" 
	d="
M1199.970459,1280.922607 
	C1204.243164,1268.567871 1208.488281,1256.203491 1212.795166,1243.860718 
	C1218.912964,1226.328247 1225.076172,1208.811768 1231.859497,1191.272705 
	C1236.393799,1194.862915 1240.088257,1198.719238 1244.223999,1202.023315 
	C1253.347656,1209.312500 1262.743652,1216.260010 1271.934082,1223.467163 
	C1279.690186,1229.549561 1287.280151,1235.843018 1295.005005,1241.965698 
	C1301.686523,1247.261353 1308.493286,1252.398926 1315.171265,1257.698975 
	C1320.574219,1261.987061 1325.779907,1266.526001 1331.229492,1270.752197 
	C1340.974243,1278.309204 1350.816895,1285.740845 1360.662842,1293.166016 
	C1363.400513,1295.230469 1366.293823,1297.088379 1369.115723,1299.041016 
	C1365.410767,1309.876831 1361.723999,1320.718750 1357.996582,1331.546875 
	C1351.543213,1350.294434 1344.886230,1368.958862 1334.629883,1386.655518 
	C1333.222534,1386.612915 1332.189697,1386.421387 1331.442871,1385.853760 
	C1322.874634,1379.341797 1314.338135,1372.787720 1305.816650,1366.214478 
	C1298.270508,1360.393555 1290.709961,1354.589966 1283.236694,1348.676514 
	C1276.616699,1343.438110 1270.100708,1338.068359 1263.552490,1332.739746 
	C1255.728516,1326.372925 1247.998047,1319.888428 1240.083740,1313.636597 
	C1230.117554,1305.763550 1219.935791,1298.162720 1209.995117,1290.258301 
	C1206.432129,1287.424927 1203.299561,1284.050171 1199.970459,1280.922607 
z"/>
<path fill="#91FEE8" opacity="1.000000" stroke="none" 
	d="
M1369.451660,1298.864014 
	C1366.293823,1297.088379 1363.400513,1295.230469 1360.662842,1293.166016 
	C1350.816895,1285.740845 1340.974243,1278.309204 1331.229492,1270.752197 
	C1325.779907,1266.526001 1320.574219,1261.987061 1315.171265,1257.698975 
	C1308.493286,1252.398926 1301.686523,1247.261353 1295.005005,1241.965698 
	C1287.280151,1235.843018 1279.690186,1229.549561 1271.934082,1223.467163 
	C1262.743652,1216.260010 1253.347656,1209.312500 1244.223999,1202.023315 
	C1240.088257,1198.719238 1236.393799,1194.862915 1232.194824,1191.105469 
	C1235.777466,1179.616821 1239.628662,1168.267578 1243.559204,1156.945679 
	C1249.766724,1139.065063 1256.027588,1121.202881 1262.969116,1103.166870 
	C1269.156738,1106.872925 1274.794800,1110.547729 1280.086792,1114.667114 
	C1286.616577,1119.749878 1292.775879,1125.306274 1299.248169,1130.466187 
	C1305.936401,1135.797974 1312.854858,1140.840088 1319.582764,1146.123169 
	C1323.942871,1149.546875 1328.048218,1153.297119 1332.434082,1156.685791 
	C1339.878052,1162.437500 1347.541016,1167.907349 1354.951172,1173.701294 
	C1363.896118,1180.695190 1372.652344,1187.930298 1381.543091,1194.994507 
	C1383.218262,1196.325562 1385.202271,1197.260986 1386.937378,1198.525024 
	C1391.692993,1201.989746 1396.391724,1205.532593 1401.113037,1209.044556 
	C1397.271240,1220.315552 1393.550415,1231.629395 1389.560059,1242.847656 
	C1383.212158,1260.693848 1376.679932,1278.474854 1370.248657,1296.291626 
	C1369.975952,1297.047119 1369.936035,1297.886719 1369.451660,1298.864014 
z"/>
<path fill="#7FFEE4" opacity="1.000000" stroke="none" 
	d="
M494.554749,635.119934 
	C502.584900,641.395569 510.166504,647.983215 518.025269,654.221741 
	C523.910034,658.893433 530.285767,662.944397 536.203125,667.578003 
	C544.885742,674.376770 553.332458,681.476196 561.921265,688.395935 
	C568.474487,693.675720 575.111328,698.851685 581.677490,704.115540 
	C595.169495,714.931641 608.602661,725.821472 622.128418,736.595093 
	C634.638489,746.559570 647.253235,756.392517 659.792175,766.320923 
	C667.673279,772.561279 675.474548,778.902832 683.379211,785.113037 
	C684.497925,785.991821 686.001038,786.381470 687.696899,787.012817 
	C668.386780,805.694214 645.445374,818.257874 618.295593,823.742554 
	C613.990845,820.244629 610.370117,816.857971 606.487549,813.804138 
	C599.255676,808.115967 591.799377,802.713074 584.566467,797.026245 
	C571.438843,786.704834 558.385925,776.288086 545.340210,765.862976 
	C533.465332,756.373474 521.641479,746.820129 509.795319,737.294678 
	C503.356995,732.117554 496.895630,726.968750 490.487183,721.754883 
	C483.617096,716.165466 476.796875,710.514648 469.954895,704.890686 
	C473.437775,694.644836 476.851715,684.374878 480.420837,674.159180 
	C484.956421,661.177124 489.617920,648.239075 494.554749,635.119934 
z"/>
<path fill="#AFFFEE" opacity="1.000000" stroke="none" 
	d="
M1129.541016,805.087952 
	C1130.693237,806.251831 1131.151123,807.633118 1132.105591,808.378967 
	C1147.351685,820.292603 1162.751587,832.011047 1177.929688,844.010132 
	C1191.302612,854.582214 1204.355957,865.558228 1217.715454,876.147583 
	C1228.429932,884.640381 1239.473755,892.716614 1250.218384,901.172119 
	C1259.299438,908.318420 1268.166260,915.737122 1277.114380,923.051880 
	C1278.739258,924.380249 1280.298706,925.788696 1281.946289,927.496948 
	C1243.646240,927.882751 1205.288208,927.931763 1166.466919,927.907288 
	C1161.452759,923.620728 1157.017090,919.274170 1152.324707,915.225159 
	C1144.842041,908.768555 1137.357544,902.292603 1129.561157,896.226746 
	C1121.218262,889.735718 1112.438232,883.809448 1104.001343,877.435059 
	C1100.344482,874.672058 1097.055054,871.420105 1093.630737,868.354370 
	C1092.768921,867.582886 1092.127686,866.548035 1091.220581,865.847107 
	C1084.443604,860.609680 1077.579468,855.484436 1070.829468,850.212708 
	C1056.866333,839.307495 1042.927246,828.370483 1029.073730,817.326904 
	C1027.741333,816.264709 1027.078125,814.362854 1026.054077,812.508423 
	C1039.049805,810.443848 1052.049927,807.969299 1065.152222,807.170166 
	C1086.425537,805.872742 1107.765747,805.672913 1129.541016,805.087952 
z"/>
<path fill="#A0FFEB" opacity="1.000000" stroke="none" 
	d="
M1401.445801,1208.875732 
	C1396.391724,1205.532593 1391.692993,1201.989746 1386.937378,1198.525024 
	C1385.202271,1197.260986 1383.218262,1196.325562 1381.543091,1194.994507 
	C1372.652344,1187.930298 1363.896118,1180.695190 1354.951172,1173.701294 
	C1347.541016,1167.907349 1339.878052,1162.437500 1332.434082,1156.685791 
	C1328.048218,1153.297119 1323.942871,1149.546875 1319.582764,1146.123169 
	C1312.854858,1140.840088 1305.936401,1135.797974 1299.248169,1130.466187 
	C1292.775879,1125.306274 1286.616577,1119.749878 1280.086792,1114.667114 
	C1274.794800,1110.547729 1269.156738,1106.872925 1263.301758,1102.985840 
	C1267.220337,1090.597168 1271.501099,1078.220703 1275.800659,1065.850708 
	C1280.619873,1051.985718 1285.456055,1038.126709 1290.676758,1024.438599 
	C1294.136230,1027.790527 1296.909424,1031.335205 1300.325684,1034.079102 
	C1311.114014,1042.743774 1322.231445,1050.997803 1333.052734,1059.622559 
	C1342.478760,1067.135376 1351.557007,1075.085938 1361.010742,1082.562500 
	C1368.801880,1088.724121 1377.047363,1094.310181 1384.857056,1100.449463 
	C1394.320190,1107.888550 1403.401489,1115.816040 1412.917114,1123.184692 
	C1417.674805,1126.868896 1423.030884,1129.780396 1428.116333,1133.041382 
	C1424.267456,1144.320312 1420.477417,1155.619629 1416.554688,1166.872803 
	C1411.686768,1180.837524 1406.708984,1194.764038 1401.445801,1208.875732 
z"/>
<path fill="#6FFEE1" opacity="1.000000" stroke="none" 
	d="
M1199.637451,1281.109619 
	C1203.299561,1284.050171 1206.432129,1287.424927 1209.995117,1290.258301 
	C1219.935791,1298.162720 1230.117554,1305.763550 1240.083740,1313.636597 
	C1247.998047,1319.888428 1255.728516,1326.372925 1263.552490,1332.739746 
	C1270.100708,1338.068359 1276.616699,1343.438110 1283.236694,1348.676514 
	C1290.709961,1354.589966 1298.270508,1360.393555 1305.816650,1366.214478 
	C1314.338135,1372.787720 1322.874634,1379.341797 1331.442871,1385.853760 
	C1332.189697,1386.421387 1333.222534,1386.612915 1334.477539,1386.987061 
	C1326.385254,1399.663818 1318.636230,1412.880249 1309.266235,1424.825317 
	C1301.981201,1434.112305 1292.691772,1441.830566 1284.246582,1450.199219 
	C1283.224731,1451.211548 1281.913086,1451.931396 1280.115601,1452.756836 
	C1271.097412,1445.528687 1262.782715,1438.229980 1254.268921,1431.171387 
	C1249.424072,1427.154541 1244.168457,1423.637085 1239.248413,1419.706299 
	C1228.392822,1411.033325 1217.685669,1402.174438 1206.813843,1393.522339 
	C1200.080078,1388.163208 1193.197510,1382.987671 1186.302124,1377.835938 
	C1180.894287,1373.795532 1175.364380,1369.918091 1169.888794,1365.968262 
	C1174.608276,1352.208008 1179.284058,1338.432739 1184.059082,1324.691772 
	C1189.091675,1310.209595 1194.218750,1295.760376 1199.637451,1281.109619 
z"/>
<path fill="#46FED8" opacity="1.000000" stroke="none" 
	d="
M869.887878,1389.954712 
	C878.191711,1381.968140 888.349121,1377.340088 899.394043,1375.133789 
	C912.765747,1372.462646 926.142822,1373.992065 939.463318,1376.670044 
	C948.710022,1378.529053 958.119995,1379.574951 967.453979,1381.003296 
	C969.367615,1381.296265 971.268066,1381.675415 973.598511,1382.450928 
	C974.426819,1383.757568 974.596985,1384.932007 975.271667,1385.452148 
	C982.580444,1391.088013 990.003052,1396.575806 997.326538,1402.192871 
	C1008.092896,1410.450317 1018.882385,1418.680664 1029.516357,1427.106445 
	C1040.091553,1435.485474 1050.417603,1444.179077 1060.985840,1452.567383 
	C1067.801514,1457.977051 1074.919800,1463.003662 1081.787842,1468.349365 
	C1090.345947,1475.010742 1098.805054,1481.799927 1107.253052,1488.601074 
	C1108.335571,1489.472168 1109.093750,1490.745850 1110.002197,1491.833130 
	C1072.644653,1491.881592 1035.287109,1491.930054 997.393555,1491.586914 
	C989.453186,1484.845703 982.129028,1478.399292 974.625488,1472.168823 
	C963.412659,1462.858765 952.199402,1453.541138 940.757812,1444.516479 
	C925.060791,1432.135254 909.167725,1420.002075 893.316650,1407.817383 
	C889.942688,1405.223999 886.314026,1402.962036 882.935181,1400.374512 
	C878.517090,1396.991333 874.230835,1393.436035 869.887878,1389.954712 
z"/>
<path fill="#AFFFEE" opacity="1.000000" stroke="none" 
	d="
M1428.454468,1132.865967 
	C1423.030884,1129.780396 1417.674805,1126.868896 1412.917114,1123.184692 
	C1403.401489,1115.816040 1394.320190,1107.888550 1384.857056,1100.449463 
	C1377.047363,1094.310181 1368.801880,1088.724121 1361.010742,1082.562500 
	C1351.557007,1075.085938 1342.478760,1067.135376 1333.052734,1059.622559 
	C1322.231445,1050.997803 1311.114014,1042.743774 1300.325684,1034.079102 
	C1296.909424,1031.335205 1294.136230,1027.790527 1291.016602,1024.258789 
	C1295.739136,1010.034973 1300.503296,996.161011 1305.292236,982.295593 
	C1308.283813,973.634094 1311.312378,964.985474 1314.652344,956.138794 
	C1321.840942,961.650513 1328.633301,967.439209 1335.585938,973.028320 
	C1340.073730,976.635986 1344.871094,979.856995 1349.395264,983.421814 
	C1355.071045,987.894165 1360.500854,992.682251 1366.231445,997.080688 
	C1375.648926,1004.308960 1385.414062,1011.094543 1394.678223,1018.509583 
	C1404.353027,1026.253418 1413.396362,1034.789307 1423.109009,1042.482422 
	C1432.531494,1049.945801 1442.453613,1056.778687 1452.494873,1063.941772 
	C1444.965576,1086.092163 1437.094116,1108.187866 1429.245605,1130.291748 
	C1428.976562,1131.049438 1428.938354,1131.889160 1428.454468,1132.865967 
z"/>
<path fill="#87FEE6" opacity="1.000000" stroke="none" 
	d="
M258.652374,362.033203 
	C262.434601,364.909027 265.815216,368.025635 269.386597,370.905640 
	C282.754120,381.685333 296.238434,392.321106 309.530121,403.192871 
	C311.454285,404.766785 312.566498,407.333466 313.893463,410.088196 
	C312.022491,413.738831 310.104553,416.643982 308.635468,419.760712 
	C296.968658,444.512238 308.013977,473.880859 332.904205,485.179077 
	C348.333344,492.182739 363.514923,491.162598 379.150452,484.898193 
	C382.507263,486.843933 385.626190,488.550842 388.401917,490.700836 
	C399.104980,498.990936 409.625061,507.518005 420.360046,515.765808 
	C426.781891,520.699829 433.476135,525.279358 440.047943,530.018188 
	C424.263855,542.324036 406.241974,549.663330 386.850494,553.938782 
	C385.900726,554.148193 384.869812,553.989807 383.292236,553.723511 
	C379.142029,550.799622 375.474121,548.280823 372.030579,545.485596 
	C363.288208,538.389343 354.791229,530.984009 345.925018,524.048828 
	C336.315399,516.532043 326.223022,509.629761 316.657562,502.059723 
	C301.993225,490.454437 287.596558,478.510834 273.092041,466.703766 
	C261.559723,457.316193 250.128860,447.799988 238.444778,438.605469 
	C235.420456,436.225586 231.614395,434.839111 228.167404,432.996338 
	C227.906906,412.670990 234.561005,394.492798 245.758362,377.880463 
	C249.496170,372.335083 254.119720,367.386688 258.652374,362.033203 
z"/>
<path fill="#91FEE8" opacity="1.000000" stroke="none" 
	d="
M657.877563,674.616211 
	C654.224060,672.488220 650.588257,670.096069 647.154724,667.442261 
	C641.722717,663.243835 636.419800,658.877991 631.073608,654.568909 
	C622.434021,647.605347 613.828857,640.598755 605.163513,633.667358 
	C590.312317,621.787964 575.426514,609.951904 560.554077,598.099182 
	C549.218933,589.065552 537.918457,579.987610 526.512085,571.044800 
	C524.460632,569.436523 521.969421,568.389282 519.323853,567.035889 
	C524.351379,551.495300 529.724609,535.997803 535.127258,520.510498 
	C537.140991,514.737915 539.223267,508.989288 541.664917,503.411255 
	C543.136169,504.783875 544.092957,506.124786 545.320374,507.137939 
	C549.026733,510.197174 552.865234,513.095642 556.602600,516.118103 
	C563.155762,521.417847 569.600708,526.854004 576.225525,532.061890 
	C581.939941,536.554138 587.940857,540.682983 593.637939,545.196106 
	C602.966919,552.586243 612.073975,560.257080 621.422302,567.622070 
	C629.188110,573.740295 637.286377,579.438049 645.020569,585.594360 
	C654.850281,593.418701 664.401245,601.593262 674.234131,609.413452 
	C675.635925,610.528320 677.947083,610.499695 679.837402,611.000305 
	C677.593994,617.847900 675.456055,624.732300 673.085205,631.535461 
	C668.117126,645.791199 663.026367,660.004089 657.877563,674.616211 
z"/>
<path fill="#5FFEDE" opacity="1.000000" stroke="none" 
	d="
M620.540771,915.088989 
	C622.237976,916.829346 623.196960,918.829468 624.752075,920.100037 
	C632.528748,926.453674 640.466064,932.610474 648.338257,938.847351 
	C653.262268,942.748596 658.150146,946.695801 663.091003,950.575562 
	C674.015930,959.154236 685.010498,967.645020 695.890259,976.280457 
	C707.587402,985.564758 719.206116,994.948547 730.797546,1004.364624 
	C732.041077,1005.374756 732.874084,1006.890198 733.949829,1008.502441 
	C696.311157,1008.882690 658.620239,1008.931580 620.410400,1008.575989 
	C613.594910,1003.114929 607.356018,997.984436 600.988953,993.018311 
	C590.173218,984.582336 579.202637,976.343628 568.442444,967.838135 
	C562.226501,962.924683 556.438354,957.468811 550.206055,952.577576 
	C537.056519,942.257324 523.696899,932.204712 510.545227,921.887146 
	C508.681641,920.425171 507.499512,918.094543 506.001984,916.165955 
	C508.065155,915.778015 510.127686,915.055725 512.191528,915.051941 
	C548.153381,914.986450 584.115417,915.009033 620.540771,915.088989 
z"/>
<path fill="#5FFEDE" opacity="1.000000" stroke="none" 
	d="
M788.092407,1081.430176 
	C792.623047,1084.002563 797.172119,1086.884277 801.510681,1090.054199 
	C810.165955,1096.378052 818.760498,1102.788696 827.267395,1109.310425 
	C830.876038,1112.076904 834.208435,1115.205078 837.652405,1118.185059 
	C842.996521,1122.809082 848.202271,1127.604126 853.701416,1132.035278 
	C859.238342,1136.497070 865.164978,1140.473511 870.731262,1144.900757 
	C876.417542,1149.423462 881.698364,1154.466064 887.476685,1158.860474 
	C894.016357,1163.833862 900.980042,1168.246216 907.612061,1173.103638 
	C909.649475,1174.595947 911.038208,1176.951416 913.011597,1178.558105 
	C917.464783,1182.184082 922.163574,1185.507202 926.642029,1189.103394 
	C933.925476,1194.951782 941.025940,1201.030151 948.359741,1206.813477 
	C961.310730,1217.026611 974.372925,1227.099121 987.402283,1237.212891 
	C991.959595,1240.750366 996.611023,1244.169556 1001.092651,1247.799438 
	C1002.014343,1248.546021 1002.370605,1249.990601 1002.999512,1251.471924 
	C967.307678,1253.207397 933.185364,1246.251343 900.592712,1231.874634 
	C876.345032,1221.178833 854.711487,1206.411133 836.137329,1187.508789 
	C813.903198,1164.882080 798.911438,1138.067993 792.072998,1106.972168 
	C790.255310,1098.706909 789.343323,1090.242676 788.092407,1081.430176 
z"/>
<path fill="#A0FFEB" opacity="1.000000" stroke="none" 
	d="
M679.994202,610.658447 
	C677.947083,610.499695 675.635925,610.528320 674.234131,609.413452 
	C664.401245,601.593262 654.850281,593.418701 645.020569,585.594360 
	C637.286377,579.438049 629.188110,573.740295 621.422302,567.622070 
	C612.073975,560.257080 602.966919,552.586243 593.637939,545.196106 
	C587.940857,540.682983 581.939941,536.554138 576.225525,532.061890 
	C569.600708,526.854004 563.155762,521.417847 556.602600,516.118103 
	C552.865234,513.095642 549.026733,510.197174 545.320374,507.137939 
	C544.092957,506.124786 543.136169,504.783875 542.004211,503.240631 
	C546.309875,490.202942 550.654480,477.513184 555.029053,464.833710 
	C557.393127,457.981354 559.808350,451.146667 562.538452,444.134094 
	C566.029175,446.277252 569.242065,448.513275 572.323120,450.918243 
	C580.545898,457.336578 588.687683,463.858765 596.907715,470.280731 
	C605.101379,476.682098 613.472534,482.862396 621.539001,489.418701 
	C628.405212,494.999542 634.818176,501.137115 641.667542,506.740021 
	C650.711975,514.138489 659.990845,521.250061 669.161316,528.494690 
	C678.523743,535.891052 687.862122,543.318115 697.258728,550.670776 
	C698.118286,551.343445 699.323914,551.573853 700.740662,552.026306 
	C698.138977,560.692383 695.191467,569.350891 692.185181,577.988953 
	C688.767700,587.808289 685.315735,597.615784 681.823914,607.408875 
	C681.454407,608.445190 680.717468,609.350464 679.994202,610.658447 
z"/>
<path fill="#F1FFFC" opacity="1.000000" stroke="none" 
	d="
M1081.427734,436.850342 
	C1077.425903,434.542908 1073.571411,432.296753 1070.131348,429.534454 
	C1058.807495,420.441864 1047.644897,411.148529 1036.398804,401.958893 
	C1027.563599,394.739319 1018.808472,387.415253 1009.811279,380.402435 
	C1001.087952,373.603058 991.975342,367.302185 983.269897,360.480896 
	C976.258545,354.987000 969.590881,349.053619 962.788574,343.294128 
	C960.188049,341.092163 957.637329,338.831390 955.014282,336.244629 
	C966.307495,329.486633 978.532104,325.471191 991.259033,323.099701 
	C996.229736,322.173492 1001.402344,322.056641 1006.484131,322.044495 
	C1042.761719,321.957794 1079.039673,321.993378 1115.317505,321.990082 
	C1117.130249,321.989899 1118.942871,321.990051 1121.511841,321.990051 
	C1118.396240,330.976715 1115.466431,339.455963 1112.517456,347.928528 
	C1102.541260,376.591248 1092.556763,405.251190 1082.583008,433.914764 
	C1082.267944,434.820221 1082.035522,435.754425 1081.427734,436.850342 
z"/>
<path fill="#37FED5" opacity="1.000000" stroke="none" 
	d="
M869.545166,1389.993286 
	C874.230835,1393.436035 878.517090,1396.991333 882.935181,1400.374512 
	C886.314026,1402.962036 889.942688,1405.223999 893.316650,1407.817383 
	C909.167725,1420.002075 925.060791,1432.135254 940.757812,1444.516479 
	C952.199402,1453.541138 963.412659,1462.858765 974.625488,1472.168823 
	C982.129028,1478.399292 989.453186,1484.845703 996.930115,1491.514404 
	C988.179810,1491.889526 979.357056,1491.992065 970.534302,1491.994263 
	C918.905457,1492.007202 867.276611,1491.996582 815.647766,1491.994019 
	C813.843994,1491.993896 812.040222,1491.994019 809.510803,1491.994019 
	C811.832458,1486.061646 813.795532,1480.633789 816.059387,1475.334351 
	C824.629761,1455.273193 833.141907,1435.154419 845.171021,1416.838257 
	C851.806580,1406.734497 859.602722,1397.541870 869.545166,1389.993286 
z"/>
<path fill="#53FEDB" opacity="1.000000" stroke="none" 
	d="
M1110.465698,1491.906006 
	C1109.093750,1490.745850 1108.335571,1489.472168 1107.253052,1488.601074 
	C1098.805054,1481.799927 1090.345947,1475.010742 1081.787842,1468.349365 
	C1074.919800,1463.003662 1067.801514,1457.977051 1060.985840,1452.567383 
	C1050.417603,1444.179077 1040.091553,1435.485474 1029.516357,1427.106445 
	C1018.882385,1418.680664 1008.092896,1410.450317 997.326538,1402.192871 
	C990.003052,1396.575806 982.580444,1391.088013 975.271667,1385.452148 
	C974.596985,1384.932007 974.426819,1383.757568 974.012390,1382.526978 
	C983.428711,1383.666992 992.851074,1385.192017 1002.282410,1386.659912 
	C1011.767456,1388.136353 1021.267395,1389.517822 1030.749878,1391.010376 
	C1042.639404,1392.881714 1054.508911,1394.883423 1066.403931,1396.718872 
	C1078.305176,1398.555298 1090.227417,1400.256104 1102.579834,1402.448975 
	C1104.908569,1405.056030 1106.531250,1407.557739 1108.732056,1409.349487 
	C1119.766357,1418.333740 1130.944214,1427.141968 1142.087769,1435.991699 
	C1148.517700,1441.097900 1154.921387,1446.240112 1161.443848,1451.226074 
	C1166.561157,1455.137695 1171.987549,1458.653442 1177.010010,1462.677734 
	C1181.885132,1466.583496 1186.457886,1470.872070 1191.094604,1475.068481 
	C1195.448975,1479.009521 1199.713379,1483.050049 1204.017456,1487.046631 
	C1199.128662,1488.031494 1194.276245,1489.281494 1189.344971,1489.956787 
	C1163.288330,1493.526611 1137.074219,1491.494263 1110.465698,1491.906006 
z"/>
<path fill="#87FEE6" opacity="1.000000" stroke="none" 
	d="
M1162.831665,1120.997314 
	C1164.059692,1138.715820 1162.288330,1156.022827 1155.038574,1172.837036 
	C1150.713989,1170.323120 1146.978882,1167.785645 1143.497559,1164.938232 
	C1138.066650,1160.496338 1132.939697,1155.677979 1127.448120,1151.315918 
	C1115.974121,1142.201538 1104.367798,1133.252686 1092.751831,1124.318970 
	C1091.399658,1123.279053 1089.643677,1122.764160 1087.964722,1121.645996 
	C1081.908447,1098.209961 1061.487061,1082.469971 1037.937866,1082.523926 
	C1034.075684,1079.110596 1030.281982,1076.009399 1026.449707,1072.956543 
	C1015.360352,1064.122437 1004.245850,1055.320190 993.160400,1046.481201 
	C986.574829,1041.230347 979.982727,1035.985352 973.510803,1030.596924 
	C972.653259,1029.883057 972.490173,1028.335205 972.005493,1027.173462 
	C988.904480,1018.049377 1007.036072,1013.325745 1026.615479,1012.424072 
	C1029.932495,1015.809265 1032.550293,1019.024841 1035.639160,1021.695740 
	C1038.927979,1024.539551 1042.766357,1026.737427 1046.182373,1029.447144 
	C1054.537109,1036.073975 1062.743164,1042.888428 1071.091919,1049.522827 
	C1078.458008,1055.376343 1086.030396,1060.972656 1093.338135,1066.896606 
	C1100.404663,1072.625244 1107.115234,1078.795532 1114.224854,1084.467651 
	C1124.030273,1092.290405 1134.006836,1099.902466 1144.019775,1107.459351 
	C1150.184692,1112.112061 1156.554077,1116.493896 1162.831665,1120.997314 
z"/>
<path fill="#5FFEDE" opacity="1.000000" stroke="none" 
	d="
M1204.435913,1487.023926 
	C1199.713379,1483.050049 1195.448975,1479.009521 1191.094604,1475.068481 
	C1186.457886,1470.872070 1181.885132,1466.583496 1177.010010,1462.677734 
	C1171.987549,1458.653442 1166.561157,1455.137695 1161.443848,1451.226074 
	C1154.921387,1446.240112 1148.517700,1441.097900 1142.087769,1435.991699 
	C1130.944214,1427.141968 1119.766357,1418.333740 1108.732056,1409.349487 
	C1106.531250,1407.557739 1104.908569,1405.056030 1103.010376,1402.526855 
	C1110.642944,1403.448730 1118.279663,1404.756104 1125.927368,1405.993896 
	C1133.615479,1407.238525 1141.331177,1408.320312 1149.000488,1409.668823 
	C1151.819824,1410.164551 1153.894043,1410.488159 1155.085693,1406.944458 
	C1159.655518,1393.354614 1164.487549,1379.852783 1169.555298,1366.143311 
	C1175.364380,1369.918091 1180.894287,1373.795532 1186.302124,1377.835938 
	C1193.197510,1382.987671 1200.080078,1388.163208 1206.813843,1393.522339 
	C1217.685669,1402.174438 1228.392822,1411.033325 1239.248413,1419.706299 
	C1244.168457,1423.637085 1249.424072,1427.154541 1254.268921,1431.171387 
	C1262.782715,1438.229980 1271.097412,1445.528687 1279.800537,1452.887817 
	C1264.517944,1465.876343 1246.763672,1474.695801 1227.695312,1480.912964 
	C1220.215088,1483.351685 1212.475708,1484.995483 1204.435913,1487.023926 
z"/>
<path fill="#6FFEE1" opacity="1.000000" stroke="none" 
	d="
M469.609558,705.068604 
	C476.796875,710.514648 483.617096,716.165466 490.487183,721.754883 
	C496.895630,726.968750 503.356995,732.117554 509.795319,737.294678 
	C521.641479,746.820129 533.465332,756.373474 545.340210,765.862976 
	C558.385925,776.288086 571.438843,786.704834 584.566467,797.026245 
	C591.799377,802.713074 599.255676,808.115967 606.487549,813.804138 
	C610.370117,816.857971 613.990845,820.244629 617.884521,823.787354 
	C611.594116,825.396301 605.197693,827.396729 598.693298,827.851379 
	C586.471924,828.705688 574.176392,829.176025 561.932739,828.894348 
	C535.990112,828.297607 511.903442,821.198669 491.090668,805.339172 
	C475.891785,793.757507 466.629944,778.318054 463.938019,759.060059 
	C461.362549,740.635315 463.662292,722.805115 469.609558,705.068604 
z"/>
<path fill="#53FEDB" opacity="1.000000" stroke="none" 
	d="
M505.579529,916.090332 
	C507.499512,918.094543 508.681641,920.425171 510.545227,921.887146 
	C523.696899,932.204712 537.056519,942.257324 550.206055,952.577576 
	C556.438354,957.468811 562.226501,962.924683 568.442444,967.838135 
	C579.202637,976.343628 590.173218,984.582336 600.988953,993.018311 
	C607.356018,997.984436 613.594910,1003.114929 619.947021,1008.502991 
	C584.311584,1008.882812 548.620667,1008.931091 512.413330,1008.574463 
	C510.512482,1006.536804 509.346924,1004.629761 507.705139,1003.319275 
	C501.107574,998.053162 494.300079,993.050354 487.692719,987.796082 
	C482.678497,983.808716 477.970825,979.431641 472.907104,975.511719 
	C466.964447,970.911377 460.704132,966.722900 454.729218,962.162415 
	C448.686920,957.550659 442.825195,952.702332 436.884399,947.957642 
	C449.653076,934.966125 465.219147,926.577759 482.360077,921.126709 
	C489.753265,918.775513 497.545898,917.680420 505.579529,916.090332 
z"/>
<path fill="#F1FFFC" opacity="1.000000" stroke="none" 
	d="
M1696.975952,900.673767 
	C1693.030884,898.620605 1689.019043,896.515808 1685.465820,893.809021 
	C1678.226074,888.293762 1671.244995,882.439636 1664.136108,876.751526 
	C1656.136475,870.350647 1648.134033,863.953064 1640.095703,857.600891 
	C1628.440430,848.390503 1616.758545,839.213562 1605.075439,830.038452 
	C1596.415161,823.237244 1587.705688,816.498169 1579.096558,809.632996 
	C1577.871216,808.655945 1577.089966,807.122314 1576.053467,805.505371 
	C1594.306519,805.109375 1612.609375,805.019592 1630.912109,805.006042 
	C1668.024902,804.978455 1705.137695,804.992126 1742.250488,804.988831 
	C1744.069336,804.988647 1745.888306,804.988770 1748.552490,804.988770 
	C1744.135986,813.332214 1740.043701,821.180603 1735.844360,828.971191 
	C1727.600586,844.264954 1719.302002,859.529175 1711.016602,874.800415 
	C1706.393188,883.322266 1701.750610,891.833679 1696.975952,900.673767 
z"/>
<path fill="#7FFEE4" opacity="1.000000" stroke="none" 
	d="
M228.085266,433.406342 
	C231.614395,434.839111 235.420456,436.225586 238.444778,438.605469 
	C250.128860,447.799988 261.559723,457.316193 273.092041,466.703766 
	C287.596558,478.510834 301.993225,490.454437 316.657562,502.059723 
	C326.223022,509.629761 336.315399,516.532043 345.925018,524.048828 
	C354.791229,530.984009 363.288208,538.389343 372.030579,545.485596 
	C375.474121,548.280823 379.142029,550.799622 382.865784,553.750427 
	C379.417542,554.704773 375.808746,555.913635 372.205566,555.897217 
	C360.798615,555.845276 349.370361,555.682983 337.993744,554.917725 
	C322.408875,553.869324 307.705994,549.110107 293.970734,541.884399 
	C270.468628,529.520447 251.545822,512.161865 239.010849,488.477753 
	C232.158508,475.530670 228.215118,461.679138 228.008957,446.913086 
	C227.948013,442.548309 228.001892,438.181976 228.085266,433.406342 
z"/>
<path fill="#A0FFEB" opacity="1.000000" stroke="none" 
	d="
M732.605225,605.095093 
	C740.745728,611.609558 748.481873,618.369629 756.438904,624.858826 
	C760.990356,628.570740 766.031616,631.679565 770.613403,635.357544 
	C775.036316,638.908081 779.035034,642.984802 783.432068,646.570435 
	C789.296387,651.352600 795.287354,655.991760 801.416382,660.426331 
	C802.570984,661.261597 804.626892,660.851074 806.684692,661.025452 
	C794.943481,673.979797 782.776245,686.916260 770.631897,699.874268 
	C767.909851,702.778809 765.268127,705.758545 761.990112,708.689697 
	C754.615601,702.971863 747.872009,697.229797 741.055481,691.575745 
	C735.258789,686.767456 729.426758,681.998962 723.521790,677.324646 
	C716.569214,671.821045 709.550415,666.399719 702.500488,661.021179 
	C699.710510,658.892639 696.759583,656.974976 693.881958,654.961304 
	C706.685791,638.383301 719.489563,621.805298 732.605225,605.095093 
z"/>
<path fill="#7FFEE4" opacity="1.000000" stroke="none" 
	d="
M971.652527,1027.192993 
	C972.490173,1028.335205 972.653259,1029.883057 973.510803,1030.596924 
	C979.982727,1035.985352 986.574829,1041.230347 993.160400,1046.481201 
	C1004.245850,1055.320190 1015.360352,1064.122437 1026.449707,1072.956543 
	C1030.281982,1076.009399 1034.075684,1079.110596 1037.502197,1082.573608 
	C1030.552612,1084.572754 1023.617859,1085.331909 1017.497375,1087.976074 
	C1003.353394,1094.086426 995.098816,1105.740356 990.260010,1120.037354 
	C985.972107,1117.302979 981.419678,1114.902710 977.454041,1111.761475 
	C970.234375,1106.042969 963.562195,1099.629028 956.298828,1093.970825 
	C945.872803,1085.849121 935.121704,1078.144409 924.201050,1070.107544 
	C926.341492,1066.391602 928.422668,1062.495361 931.303711,1059.326172 
	C942.930542,1046.536377 955.781006,1035.191772 971.652527,1027.192993 
z"/>
<path fill="#91FEE8" opacity="1.000000" stroke="none" 
	d="
M1162.905640,1120.560059 
	C1156.554077,1116.493896 1150.184692,1112.112061 1144.019775,1107.459351 
	C1134.006836,1099.902466 1124.030273,1092.290405 1114.224854,1084.467651 
	C1107.115234,1078.795532 1100.404663,1072.625244 1093.338135,1066.896606 
	C1086.030396,1060.972656 1078.458008,1055.376343 1071.091919,1049.522827 
	C1062.743164,1042.888428 1054.537109,1036.073975 1046.182373,1029.447144 
	C1042.766357,1026.737427 1038.927979,1024.539551 1035.639160,1021.695740 
	C1032.550293,1019.024841 1029.932495,1015.809265 1027.055054,1012.500854 
	C1048.669067,1011.107361 1070.087769,1012.207886 1090.334229,1020.965698 
	C1128.224243,1037.355347 1152.297241,1065.378296 1160.969360,1106.058960 
	C1161.954468,1110.679688 1162.324463,1115.431641 1162.905640,1120.560059 
z"/>
<path fill="#7FFEE4" opacity="1.000000" stroke="none" 
	d="
M1088.074829,1122.005859 
	C1089.643677,1122.764160 1091.399658,1123.279053 1092.751831,1124.318970 
	C1104.367798,1133.252686 1115.974121,1142.201538 1127.448120,1151.315918 
	C1132.939697,1155.677979 1138.066650,1160.496338 1143.497559,1164.938232 
	C1146.978882,1167.785645 1150.713989,1170.323120 1154.708984,1173.014648 
	C1148.831787,1189.640991 1137.769043,1202.755127 1124.828735,1214.468750 
	C1122.296997,1216.760498 1119.438843,1218.691895 1116.416748,1220.913574 
	C1105.009644,1212.188965 1093.916260,1203.341187 1082.825073,1194.490967 
	C1076.041748,1189.078369 1069.261475,1183.661987 1062.406006,1177.836914 
	C1080.081055,1167.637573 1092.825073,1148.108887 1088.074829,1122.005859 
z"/>
<path fill="#91FEE8" opacity="1.000000" stroke="none" 
	d="
M693.568604,655.088623 
	C696.759583,656.974976 699.710510,658.892639 702.500488,661.021179 
	C709.550415,666.399719 716.569214,671.821045 723.521790,677.324646 
	C729.426758,681.998962 735.258789,686.767456 741.055481,691.575745 
	C747.872009,697.229797 754.615601,702.971863 761.683594,708.830200 
	C752.784180,718.689819 743.578674,728.382507 734.411682,738.111633 
	C732.723572,739.903137 731.191833,741.841980 729.279907,743.852783 
	C722.961609,739.985046 716.669495,736.337830 710.994995,731.900879 
	C695.278870,719.612183 679.820190,706.994263 664.103638,694.199219 
	C669.222839,686.838501 674.466919,679.761353 679.783142,672.738892 
	C684.230042,666.864685 688.761353,661.054443 693.568604,655.088623 
z"/>
<path fill="#46FED8" opacity="1.000000" stroke="none" 
	d="
M436.576080,948.080811 
	C442.825195,952.702332 448.686920,957.550659 454.729218,962.162415 
	C460.704132,966.722900 466.964447,970.911377 472.907104,975.511719 
	C477.970825,979.431641 482.678497,983.808716 487.692719,987.796082 
	C494.300079,993.050354 501.107574,998.053162 507.705139,1003.319275 
	C509.346924,1004.629761 510.512482,1006.536804 511.949829,1008.501709 
	C475.390167,1008.876221 438.777557,1008.919434 402.164978,1008.947632 
	C401.852814,1008.947876 401.540527,1008.744446 400.851776,1008.505310 
	C407.215393,985.188782 418.125946,964.599915 436.576080,948.080811 
z"/>
<path fill="#91FEE8" opacity="1.000000" stroke="none" 
	d="
M440.370422,529.919678 
	C433.476135,525.279358 426.781891,520.699829 420.360046,515.765808 
	C409.625061,507.518005 399.104980,498.990936 388.401917,490.700836 
	C385.626190,488.550842 382.507263,486.843933 379.362671,484.625580 
	C382.673553,481.838379 386.373047,479.600342 389.622772,476.833923 
	C398.827454,468.998108 403.606476,458.632263 405.966034,446.992126 
	C409.442596,448.958557 413.152924,450.607025 416.347839,452.956451 
	C423.372437,458.121948 430.156769,463.616150 436.993225,469.034149 
	C438.804443,470.469604 440.362457,472.226440 442.184387,473.646271 
	C450.957825,480.483551 459.768250,487.273773 468.612396,494.019257 
	C469.349121,494.581146 470.434296,494.686249 471.734131,495.021118 
	C465.112457,503.623352 458.283936,512.355164 451.034027,520.721863 
	C448.054626,524.160217 444.167236,526.811768 440.370422,529.919678 
z"/>
<path fill="#A0FFEB" opacity="1.000000" stroke="none" 
	d="
M830.707031,650.978394 
	C830.904175,651.204895 830.764404,651.475342 830.358582,651.844482 
	C830.268616,651.679382 830.361084,651.372375 830.707031,650.978394 
z"/>
<path fill="#FEFFFF" opacity="1.000000" stroke="none" 
	d="
M1087.964722,1121.645996 
	C1092.825073,1148.108887 1080.081055,1167.637573 1062.101807,1177.680664 
	C1044.915039,1185.309326 1028.013916,1185.621338 1012.331665,1175.296753 
	C992.793945,1162.433716 985.754211,1143.832031 990.211548,1120.461914 
	C995.098816,1105.740356 1003.353394,1094.086426 1017.497375,1087.976074 
	C1023.617859,1085.331909 1030.552612,1084.572754 1037.553223,1082.907715 
	C1061.487061,1082.469971 1081.908447,1098.209961 1087.964722,1121.645996 
z"/>
<path fill="#FEFFFF" opacity="1.000000" stroke="none" 
	d="
M405.948364,446.527710 
	C403.606476,458.632263 398.827454,468.998108 389.622772,476.833923 
	C386.373047,479.600342 382.673553,481.838379 378.967194,484.590271 
	C363.514923,491.162598 348.333344,492.182739 332.904205,485.179077 
	C308.013977,473.880859 296.968658,444.512238 308.635468,419.760712 
	C310.104553,416.643982 312.022491,413.738831 313.929382,410.464661 
	C322.809570,400.787903 333.008118,394.199219 345.866028,391.778198 
	C377.217896,385.874908 406.090393,409.665070 405.975281,441.567047 
	C405.969879,443.065826 405.945984,444.564514 405.948364,446.527710 
z"/>
<path fill="#000000" opacity="1.000000" stroke="none" 
	d="
M836.600220,630.450562 
	C836.630310,629.651001 836.831299,629.085693 837.032288,628.520386 
	C837.345947,628.774719 837.659668,629.029053 837.973389,629.283386 
	C837.879150,629.822144 837.784973,630.360840 837.416382,631.014893 
	C837.018311,630.981750 836.894653,630.833313 836.600220,630.450562 
z"/>
<path fill="#000000" opacity="1.000000" stroke="none" 
	d="
M643.431274,718.532715 
	C643.195435,719.327332 642.783386,719.902222 641.865845,721.182617 
	C642.102539,719.591858 642.211487,718.859863 642.600220,718.010376 
	C643.005127,718.033020 643.130127,718.173035 643.431274,718.532715 
z"/>
</svg>